<?xml version="1.0" encoding="UTF-8"?>
<!DOCTYPE svg PUBLIC "-//W3C//DTD SVG 1.1//EN" "http://www.w3.org/Graphics/SVG/1.1/DTD/svg11.dtd">
<!-- Creator: CorelDRAW -->
<svg xmlns="http://www.w3.org/2000/svg" xml:space="preserve" width="1.44917in" height="1.01997in" version="1.1" style="shape-rendering:geometricPrecision; text-rendering:geometricPrecision; image-rendering:optimizeQuality; fill-rule:evenodd; clip-rule:evenodd"
viewBox="0 0 264.32 186.04"
 xmlns:xlink="http://www.w3.org/1999/xlink"
 xmlns:xodm="http://www.corel.com/coreldraw/odm/2003">
 <defs>
  <style type="text/css">
   <![CDATA[
    .str0 {stroke:white;stroke-width:1.52;stroke-linejoin:round;stroke-miterlimit:22.9256}
    .fil2 {fill:none}
    .fil0 {fill:white}
    .fil1 {fill:white;fill-rule:nonzero}
   ]]>
  </style>
 </defs>
 <g id="Слой_x0020_1">
  <metadata id="CorelCorpID_0Corel-Layer"/>
  <polygon class="fil0" points="0.76,98.44 88.36,98.44 88.36,142.24 175.96,98.44 263.56,98.44 263.56,186.04 175.96,186.04 88.36,186.04 0.76,186.04 "/>
  <path class="fil1" d="M57.44 76.11l-12.5 0 0 -20.6c0,-1.84 -0.39,-3.24 -1.17,-4.23 -0.79,-0.98 -1.89,-1.47 -3.32,-1.47 -2.06,0 -3.65,0.75 -4.81,2.23 -1.16,1.5 -1.73,3.61 -1.73,6.35l0 17.73 -12.5 0 0 -35.95 11.63 0 0 6.02c2.07,-2.44 4.13,-4.22 6.15,-5.32 2.03,-1.12 4.25,-1.68 6.65,-1.68 2.63,0 4.81,0.55 6.52,1.63 1.7,1.08 3.16,2.82 4.36,5.2 1.76,-2.27 3.68,-3.99 5.76,-5.13 2.1,-1.13 4.36,-1.7 6.81,-1.7 3.99,0 6.93,1.12 8.84,3.36 1.89,2.25 2.85,5.72 2.85,10.42l0 23.15 -12.5 0 0 -20.6c0,-1.84 -0.39,-3.24 -1.17,-4.23 -0.79,-0.98 -1.89,-1.47 -3.32,-1.47 -2.08,0 -3.68,0.75 -4.82,2.23 -1.14,1.5 -1.71,3.61 -1.71,6.35l0 17.73zm55.87 -26.82c-0.75,-0.42 -1.46,-0.74 -2.14,-0.91 -0.68,-0.19 -1.35,-0.29 -2.01,-0.29 -2.37,0 -4.37,0.99 -5.99,2.98 -1.62,1.97 -2.44,4.48 -2.44,7.49 0,2.82 0.71,5.17 2.14,7.05 1.43,1.88 3.16,2.82 5.21,2.82 0.79,0 1.63,-0.16 2.49,-0.5 0.87,-0.33 1.78,-0.84 2.74,-1.54l0 -17.1zm12.5 -31.84l0 58.66 -10.95 1.72 -0.48 -2.79c-1.76,0.95 -3.49,1.66 -5.19,2.11 -1.71,0.45 -3.44,0.68 -5.2,0.68 -5.02,0 -8.96,-1.66 -11.78,-4.98 -2.82,-3.32 -4.24,-7.92 -4.24,-13.81 0,-6.17 1.66,-11.11 4.97,-14.84 3.32,-3.72 7.71,-5.58 13.17,-5.58 1.28,0 2.51,0.12 3.68,0.38 1.17,0.25 2.34,0.64 3.51,1.17l0 -21 12.5 -1.72zm32.69 31.28c-0.75,-0.22 -1.48,-0.37 -2.22,-0.48 -0.74,-0.11 -1.38,-0.16 -1.93,-0.16 -2.4,0 -4.4,0.98 -6.02,2.95 -1.61,1.97 -2.41,4.48 -2.41,7.52 0,2.82 0.71,5.17 2.14,7.05 1.43,1.88 3.16,2.82 5.22,2.82 0.67,0 1.38,-0.11 2.15,-0.34 0.78,-0.23 1.8,-0.64 3.08,-1.25l0 -18.11zm12.5 -8.56l0 47.57 -12.5 7.09 0 -19.35c-1.59,0.78 -3.15,1.36 -4.66,1.76 -1.5,0.39 -2.91,0.6 -4.25,0.6 -5.01,0 -9.01,-1.67 -12.01,-5.01 -3,-3.34 -4.49,-7.79 -4.49,-13.37 0,-6.25 1.69,-11.25 5.05,-14.98 3.36,-3.74 7.86,-5.61 13.48,-5.61 1.23,0 2.55,0.11 3.95,0.31 1.42,0.22 3,0.55 4.75,0.99l10.68 0z"/>
  <path class="fil2 str0" d="M0.76 98.44l87.6 0 0 43.8c0,1.68 89.01,-43.8 89.01,-43.8l86.19 0 0 -97.68 -262.8 0 0 97.68z"/>
  <path class="fil1" d="M194.93 44.44l0 -6.57c0,-1.07 -0.15,-1.81 -0.44,-2.21 -0.29,-0.39 -0.8,-0.59 -1.52,-0.59 -0.86,0 -1.53,0.27 -2.01,0.8 -0.48,0.53 -0.72,1.29 -0.72,2.25l0 6.31 -1.82 0 0 -6.57c0,-1.07 -0.15,-1.81 -0.44,-2.21 -0.29,-0.39 -0.8,-0.59 -1.51,-0.59 -0.86,0 -1.53,0.27 -2.01,0.81 -0.49,0.54 -0.73,1.29 -0.73,2.24l0 6.31 -1.8 0 0 -10.67 1.72 0 0 1.51c0.4,-0.6 0.87,-1.04 1.41,-1.33 0.54,-0.29 1.18,-0.44 1.91,-0.44 0.66,0 1.23,0.13 1.7,0.4 0.47,0.27 0.87,0.69 1.21,1.27 0.47,-0.57 0.97,-1 1.52,-1.27 0.55,-0.27 1.19,-0.4 1.9,-0.4 0.69,0 1.29,0.13 1.8,0.37 0.51,0.25 0.9,0.61 1.18,1.08 0.15,0.27 0.26,0.6 0.33,0.98 0.07,0.38 0.1,0.98 0.1,1.79l0 0.31 0 6.41 -1.8 0zm5.87 -6.3l5.86 0c-0.01,-1 -0.26,-1.77 -0.76,-2.31 -0.5,-0.54 -1.2,-0.81 -2.12,-0.81 -0.88,0 -1.58,0.26 -2.09,0.8 -0.51,0.53 -0.81,1.3 -0.89,2.32zm5.81 2.86l1.78 0c-0.19,1.18 -0.7,2.1 -1.53,2.78 -0.83,0.68 -1.88,1.02 -3.14,1.02 -1.48,0 -2.65,-0.5 -3.51,-1.49 -0.86,-1 -1.29,-2.36 -1.29,-4.07 0,-1.82 0.42,-3.24 1.28,-4.26 0.85,-1.02 2.02,-1.53 3.52,-1.53 1.53,0 2.72,0.47 3.56,1.41 0.84,0.94 1.26,2.27 1.26,3.99 0,0.22 0,0.38 -0,0.49 -0,0.11 -0.01,0.21 -0.02,0.31l-7.7 0c0.02,1.12 0.3,1.99 0.84,2.61 0.54,0.61 1.29,0.92 2.24,0.92 0.73,0 1.33,-0.19 1.81,-0.56 0.48,-0.37 0.78,-0.91 0.92,-1.6zm11.63 -1.96c0,-1.32 -0.27,-2.32 -0.8,-2.99 -0.53,-0.67 -1.33,-1.01 -2.37,-1.01 -1.01,0 -1.79,0.37 -2.34,1.1 -0.55,0.73 -0.83,1.78 -0.83,3.12 0,1.22 0.28,2.17 0.85,2.87 0.57,0.7 1.35,1.05 2.34,1.05 1,0 1.78,-0.36 2.33,-1.07 0.55,-0.72 0.83,-1.74 0.83,-3.07zm1.67 -9.26l0 14.67 -1.73 0 0 -1.34c-0.46,0.56 -0.98,0.97 -1.55,1.25 -0.58,0.28 -1.21,0.42 -1.91,0.42 -1.42,0 -2.56,-0.51 -3.4,-1.53 -0.85,-1.02 -1.27,-2.38 -1.27,-4.1 0,-1.74 0.42,-3.14 1.27,-4.17 0.85,-1.03 1.98,-1.55 3.4,-1.55 0.74,0 1.4,0.14 1.98,0.41 0.57,0.28 1.07,0.69 1.49,1.24l0 -5.3 1.73 0zm2.8 2.04l0 -2.04 1.8 0 0 2.04 -1.8 0zm0 12.63l0 -10.67 1.8 0 0 10.67 -1.8 0zm11.13 -1.42c-0.56,0.58 -1.15,1.02 -1.78,1.31 -0.63,0.29 -1.29,0.44 -2,0.44 -1.09,0 -1.94,-0.28 -2.55,-0.85 -0.61,-0.57 -0.92,-1.35 -0.92,-2.35 0,-0.97 0.3,-1.73 0.9,-2.28 0.6,-0.55 1.52,-0.9 2.75,-1.06 0.31,-0.03 0.73,-0.08 1.27,-0.14 0.91,-0.09 1.47,-0.18 1.67,-0.27 0.21,-0.08 0.34,-0.19 0.41,-0.32 0.07,-0.13 0.1,-0.41 0.1,-0.84 0,-0.54 -0.2,-0.95 -0.6,-1.23 -0.4,-0.27 -1,-0.41 -1.81,-0.41 -0.83,0 -1.46,0.17 -1.88,0.5 -0.42,0.33 -0.63,0.83 -0.63,1.48l-1.69 0 0 -0.08c0,-1.07 0.38,-1.93 1.14,-2.55 0.76,-0.63 1.8,-0.94 3.13,-0.94 1.43,0 2.48,0.27 3.15,0.8 0.67,0.53 1.01,1.37 1.01,2.51l0 5.34c0,0.46 0.05,0.75 0.15,0.88 0.1,0.13 0.28,0.2 0.54,0.2 0.05,0 0.12,-0 0.2,-0.01 0.08,-0.01 0.17,-0.03 0.28,-0.05l0 1.39c-0.22,0.06 -0.41,0.1 -0.58,0.13 -0.16,0.02 -0.32,0.04 -0.46,0.04 -0.6,0 -1.05,-0.13 -1.34,-0.39 -0.3,-0.26 -0.45,-0.65 -0.45,-1.18l0 -0.06zm-0.17 -4c-0.48,0.26 -1.3,0.46 -2.46,0.6 -0.41,0.05 -0.72,0.09 -0.93,0.13 -0.65,0.11 -1.12,0.3 -1.4,0.58 -0.29,0.28 -0.43,0.68 -0.43,1.22 0,0.53 0.17,0.94 0.5,1.22 0.33,0.29 0.81,0.43 1.42,0.43 0.96,0 1.76,-0.24 2.37,-0.73 0.62,-0.49 0.93,-1.11 0.93,-1.86l0 -1.59zm-44.09 17.41c0,-1.32 -0.27,-2.32 -0.8,-2.99 -0.53,-0.67 -1.33,-1.01 -2.37,-1.01 -1.01,0 -1.79,0.37 -2.34,1.1 -0.55,0.73 -0.83,1.78 -0.83,3.12 0,1.22 0.28,2.17 0.85,2.87 0.57,0.7 1.35,1.05 2.34,1.05 1,0 1.78,-0.36 2.33,-1.07 0.55,-0.72 0.83,-1.74 0.83,-3.07zm1.67 -9.26l0 14.67 -1.73 0 0 -1.34c-0.46,0.56 -0.98,0.97 -1.55,1.25 -0.58,0.28 -1.21,0.42 -1.91,0.42 -1.42,0 -2.56,-0.51 -3.4,-1.53 -0.85,-1.02 -1.27,-2.38 -1.27,-4.1 0,-1.74 0.42,-3.13 1.28,-4.17 0.85,-1.03 1.98,-1.55 3.4,-1.55 0.74,0 1.4,0.14 1.98,0.41 0.57,0.28 1.07,0.69 1.49,1.24l0 -5.31 1.73 0zm9.4 13.25c-0.56,0.59 -1.15,1.02 -1.78,1.31 -0.63,0.29 -1.29,0.44 -2,0.44 -1.09,0 -1.94,-0.28 -2.55,-0.85 -0.61,-0.57 -0.92,-1.35 -0.92,-2.35 0,-0.97 0.3,-1.73 0.9,-2.28 0.6,-0.55 1.52,-0.9 2.75,-1.06 0.31,-0.03 0.73,-0.08 1.27,-0.14 0.91,-0.09 1.47,-0.18 1.67,-0.27 0.21,-0.08 0.34,-0.19 0.41,-0.32 0.07,-0.13 0.1,-0.41 0.1,-0.84 0,-0.54 -0.2,-0.95 -0.6,-1.23 -0.4,-0.27 -1,-0.41 -1.81,-0.41 -0.83,0 -1.46,0.17 -1.88,0.5 -0.42,0.33 -0.63,0.83 -0.63,1.48l-1.69 0 0 -0.08c0,-1.07 0.38,-1.93 1.14,-2.55 0.76,-0.63 1.8,-0.94 3.13,-0.94 1.43,0 2.48,0.27 3.15,0.8 0.67,0.53 1.01,1.37 1.01,2.51l0 5.34c0,0.46 0.05,0.75 0.15,0.88 0.1,0.13 0.28,0.2 0.54,0.2 0.05,0 0.12,-0 0.2,-0.01 0.08,-0.01 0.17,-0.03 0.28,-0.05l0 1.39c-0.22,0.06 -0.41,0.1 -0.58,0.13 -0.16,0.02 -0.32,0.04 -0.46,0.04 -0.6,0 -1.05,-0.13 -1.34,-0.39 -0.3,-0.26 -0.45,-0.65 -0.45,-1.18l0 -0.06zm-0.17 -4c-0.48,0.26 -1.3,0.46 -2.46,0.6 -0.41,0.05 -0.72,0.1 -0.93,0.13 -0.65,0.11 -1.12,0.3 -1.4,0.58 -0.29,0.28 -0.43,0.68 -0.43,1.22 0,0.53 0.17,0.94 0.5,1.22 0.33,0.29 0.8,0.43 1.42,0.43 0.96,0 1.76,-0.24 2.37,-0.73 0.62,-0.49 0.93,-1.11 0.93,-1.86l0 -1.59zm17.65 5.43l0 -6.57c0,-1.07 -0.15,-1.81 -0.44,-2.21 -0.29,-0.39 -0.8,-0.59 -1.52,-0.59 -0.86,0 -1.53,0.27 -2.01,0.8 -0.48,0.53 -0.72,1.29 -0.72,2.25l0 6.31 -1.82 0 0 -6.57c0,-1.07 -0.15,-1.81 -0.44,-2.21 -0.29,-0.39 -0.8,-0.59 -1.51,-0.59 -0.86,0 -1.53,0.27 -2.01,0.81 -0.49,0.54 -0.73,1.29 -0.73,2.24l0 6.31 -1.8 0 0 -10.67 1.72 0 0 1.51c0.4,-0.6 0.87,-1.04 1.41,-1.33 0.54,-0.29 1.18,-0.44 1.91,-0.44 0.66,0 1.23,0.13 1.7,0.4 0.47,0.27 0.87,0.69 1.21,1.27 0.47,-0.57 0.97,-1 1.52,-1.27 0.55,-0.27 1.19,-0.4 1.9,-0.4 0.69,0 1.29,0.13 1.8,0.37 0.51,0.25 0.9,0.61 1.18,1.08 0.15,0.27 0.26,0.6 0.33,0.98 0.06,0.38 0.1,0.98 0.1,1.79l0 0.31 0 6.41 -1.8 0zm11.26 -10.67l2 0 -4.49 12.33c-0.43,1.16 -0.85,1.91 -1.29,2.27 -0.43,0.36 -1.05,0.54 -1.87,0.54 -0.18,0 -0.36,-0.01 -0.53,-0.05 -0.18,-0.03 -0.35,-0.07 -0.53,-0.12l0 -1.71c0.18,0.05 0.36,0.09 0.53,0.12 0.17,0.03 0.35,0.04 0.52,0.04 0.34,0 0.62,-0.07 0.84,-0.21 0.21,-0.14 0.37,-0.36 0.49,-0.67l0.47 -1.26 -4.04 -11.28 2 0 2.96 8.63 2.96 -8.63zm5.69 7.98c0,0.48 0.07,0.8 0.2,0.96 0.14,0.16 0.38,0.24 0.75,0.24 0.11,0 0.23,-0 0.38,-0.01 0.15,-0.01 0.34,-0.02 0.58,-0.04l0 1.52c-0.3,0.05 -0.56,0.09 -0.8,0.12 -0.23,0.03 -0.45,0.04 -0.63,0.04 -0.84,0 -1.43,-0.16 -1.77,-0.49 -0.34,-0.33 -0.51,-0.9 -0.51,-1.73l0 -7.16 -1.6 0 0 -1.43 1.6 0 0 -2.98 1.8 0 0 2.98 1.92 0 0 1.43 -1.92 0 0 6.56zm5.4 -7.98l0 6.55c0,1.05 0.16,1.78 0.49,2.19 0.33,0.41 0.88,0.61 1.67,0.61 1.04,0 1.82,-0.3 2.35,-0.91 0.53,-0.61 0.8,-1.5 0.8,-2.69l0 -5.75 1.8 0 0 10.67 -1.72 0 0 -1.59c-0.37,0.62 -0.85,1.08 -1.44,1.39 -0.59,0.31 -1.29,0.47 -2.08,0.47 -0.75,0 -1.39,-0.13 -1.94,-0.38 -0.55,-0.25 -0.97,-0.61 -1.26,-1.08 -0.17,-0.26 -0.29,-0.56 -0.36,-0.91 -0.07,-0.35 -0.11,-0.9 -0.11,-1.66l0 -0.51 0 -6.41 1.82 0zm-57.24 22.58c0,1.36 0.28,2.41 0.85,3.14 0.57,0.73 1.37,1.1 2.42,1.1 0.98,0 1.74,-0.36 2.27,-1.07 0.53,-0.71 0.8,-1.72 0.8,-3.04 0,-1.28 -0.28,-2.28 -0.83,-2.99 -0.55,-0.71 -1.32,-1.07 -2.31,-1.07 -0.99,0 -1.77,0.35 -2.35,1.05 -0.57,0.7 -0.86,1.65 -0.86,2.87zm6.28 4.08c-0.34,0.56 -0.81,0.99 -1.4,1.29 -0.59,0.3 -1.28,0.44 -2.07,0.44 -1.42,0 -2.56,-0.51 -3.4,-1.54 -0.85,-1.03 -1.27,-2.41 -1.27,-4.15 0,-1.72 0.42,-3.09 1.27,-4.12 0.85,-1.02 1.98,-1.53 3.4,-1.53 0.76,0 1.42,0.15 1.98,0.44 0.56,0.29 1.06,0.74 1.48,1.35l0 -1.45 1.73 0 0 14.93 -1.73 0 0 -5.67zm5.82 -3.95c0,1.32 0.28,2.34 0.85,3.04 0.57,0.7 1.38,1.05 2.44,1.05 1.05,0 1.85,-0.35 2.41,-1.05 0.56,-0.7 0.84,-1.71 0.84,-3.04 0,-1.31 -0.28,-2.32 -0.84,-3.02 -0.56,-0.7 -1.36,-1.05 -2.41,-1.05 -1.06,0 -1.87,0.35 -2.44,1.05 -0.56,0.7 -0.85,1.71 -0.85,3.03zm-1.84 0c0,-1.79 0.45,-3.18 1.34,-4.17 0.89,-1 2.15,-1.49 3.76,-1.49 1.62,0 2.88,0.5 3.78,1.49 0.9,0.99 1.35,2.38 1.35,4.18 0,1.8 -0.44,3.19 -1.34,4.19 -0.89,1 -2.15,1.49 -3.76,1.49 -1.62,0 -2.88,-0.5 -3.78,-1.49 -0.9,-0.99 -1.35,-2.39 -1.35,-4.19zm12.4 5.35l0 -10.67 1.73 0 0 1.91c0.29,-0.71 0.67,-1.25 1.16,-1.6 0.49,-0.35 1.09,-0.53 1.8,-0.53 0.13,0 0.23,0 0.29,0 0.06,0 0.12,0.01 0.18,0.03l0 1.89c-0.05,-0.01 -0.1,-0.01 -0.16,-0.02 -0.06,-0 -0.15,-0 -0.27,-0 -0.96,0 -1.68,0.26 -2.19,0.78 -0.5,0.52 -0.75,1.28 -0.75,2.28l0 5.94 -1.8 0zm13.53 -10.67l2 0 -4.49 12.33c-0.43,1.16 -0.85,1.92 -1.29,2.27 -0.43,0.36 -1.05,0.54 -1.87,0.54 -0.18,0 -0.36,-0.01 -0.53,-0.04 -0.18,-0.03 -0.35,-0.07 -0.53,-0.12l0 -1.71c0.18,0.05 0.36,0.09 0.53,0.12 0.17,0.03 0.35,0.04 0.52,0.04 0.34,0 0.62,-0.07 0.84,-0.21 0.21,-0.14 0.37,-0.36 0.49,-0.67l0.47 -1.26 -4.04 -11.28 2 0 2.96 8.63 2.96 -8.63z"/>
 </g>
</svg>
